Coordinates
version=1
nRows=8
nColumns=36
inDegrees=yes

Units are S.I. units (second, meters, Newtons, ...)
If the header above contains a line with 'inDegrees', this indicates whether rotational values are in degrees (yes) or radians (no).

endheader
time	pelvis_tilt	pelvis_list	pelvis_rotation	pelvis_tx	pelvis_ty	pelvis_tz	hip_flexion_r	hip_adduction_r	hip_rotation_r	knee_angle_r	knee_angle_r_beta	ankle_angle_r	subtalar_angle_r	mtp_angle_r	hip_flexion_l	hip_adduction_l	hip_rotation_l	knee_angle_l	knee_angle_l_beta	ankle_angle_l	subtalar_angle_l	mtp_angle_l	lumbar_extension	lumbar_bending	lumbar_rotation	arm_flex_r	arm_add_r	arm_rot_r	elbow_flex_r	pro_sup_r	arm_flex_l	arm_add_l	arm_rot_l	elbow_flex_l	pro_sup_l
      8.70000000	     -6.17998462	      0.64535304	      3.30381500	      1.03395371	      0.90913553	      0.05405558	      3.62612314	     -9.02528912	    -17.70866931	      4.99664364	      0.08720788	      8.61792514	    -10.99474401	     -7.49999987	      4.66105529	     -6.87048917	    -11.52693318	      2.98302128	      0.05206354	      6.12494997	     -5.65357883	     -7.49999987	     -0.36381627	      0.76402799	     -2.18731505	     43.14594595	     -2.89648608	     66.11148067	    127.54870453	     93.43496589	     47.89056674	     -5.74533865	     63.45190757	    131.49465430	    100.59427211
      8.71666670	     -6.14780287	      0.65539287	      3.26297843	      1.03402250	      0.90920447	      0.05386352	      3.59625354	     -9.05144839	    -17.75689562	      5.04090492	      0.08798039	      8.72752845	    -10.69625681	     -7.49999987	      4.59127253	     -6.84039443	    -11.21781631	      2.95125853	      0.05150918	      5.98775400	     -6.13345778	     -7.49999987	     -0.27978941	      0.66058070	     -2.33227569	     42.80090149	     -2.93064617	     66.45222194	    127.67352840	     90.61451310	     47.71651863	     -5.84940888	     63.14761708	    131.38857498	     97.36176547
      8.73333330	     -6.16029329	      0.66678833	      3.13372169	      1.03346871	      0.90677558	      0.05394526	      3.61191261	     -9.05217969	    -17.55103958	      5.02191239	      0.08764891	      8.61538132	    -10.82921867	     -7.49999987	      4.54926529	     -6.85128697	    -11.61610051	      2.94141126	      0.05133731	      6.32698297	     -5.35827744	     -7.49999987	     -0.07766175	      0.69482872	     -2.43812256	     43.12497452	     -2.71850472	     66.06649506	    127.03852547	     93.09527533	     47.87751492	     -5.92072062	     63.05345068	    131.91531954	     99.62125161
      8.75000000	     -6.11320090	      0.64864577	      3.09774601	      1.03432268	      0.91157956	      0.05426196	      3.53003561	     -9.02344663	    -17.50431848	      4.99837376	      0.08723808	      8.59690585	    -10.76874980	     -7.49999987	      4.49329505	     -6.88602945	    -11.53018434	      2.94346325	      0.05137313	      6.29336071	     -5.45163279	     -7.49999987	     -0.16080089	      0.64051948	     -2.37332308	     42.80196604	     -2.86244911	     66.17185317	    126.78591745	     93.08881603	     47.57949905	     -6.05299469	     63.24636072	    131.85873775	     99.63688622
      8.76666670	     -6.09729101	      0.64920295	      3.08421489	      1.03382043	      0.90896483	      0.05411835	      3.49059172	     -9.02255549	    -17.59490283	      4.97079896	      0.08675681	      8.69376541	    -10.53993926	     -7.49999987	      4.42902248	     -6.87230509	    -11.30924176	      2.88704612	      0.05038846	      6.14481074	     -5.79504092	     -7.49999987	     -0.09527725	      0.62123187	     -2.53272330	     42.88411022	     -2.87723269	     65.78801469	    126.33911521	     91.54411071	     47.68295966	     -6.21681508	     63.21315565	    131.98934586	     98.05465462
      8.78333330	     -6.11092014	      0.66425617	      2.94771904	      1.03401517	      0.90386951	      0.05413971	      3.51650805	     -9.02256421	    -17.39097580	      4.90325492	      0.08557794	      8.50821122	    -10.82065085	     -7.49999987	      4.37959505	     -6.85321082	    -11.33151173	      2.83359891	      0.04945563	      6.19381451	     -5.79824519	     -7.49999987	      0.13968251	      0.58721843	     -2.57091128	     43.13728202	     -2.75985829	     65.11181115	    126.30426665	     89.66115137	     48.06456066	     -6.12990924	     62.46023947	    131.81198137	     96.19417924
      8.80000000	     -6.06866015	      0.65556710	      2.94812434	      1.03930500	      0.90957920	      0.05150207	      3.36068341	     -9.01988192	    -17.40029580	      4.80187500	      0.08380853	      8.49794281	    -10.70229184	     -7.49999987	      4.26534294	     -6.84909077	    -11.40907485	      2.76845905	      0.04831873	      6.17047910	     -5.70895376	     -7.49999987	      0.25099557	      0.60027243	     -2.71872995	     42.73492289	     -2.98620057	     65.23919736	    126.40396556	     89.84611589	     47.48358844	     -6.20000770	     62.48023293	    131.42673027	     96.41516868
      8.81666670	     -6.09230724	      0.64901077	      2.91957386	      1.03441984	      0.90637878	      0.05440149	      3.36657090	     -9.00381510	    -17.41690470	      4.75366781	      0.08296715	      8.65756089	    -10.58173044	     -7.49999987	      4.27627725	     -6.86024402	    -11.45980312	      2.78101247	      0.04853782	      6.34907657	     -5.51916585	     -7.49999987	      0.37556844	      0.55857764	     -2.68658006	     42.85701699	     -2.95958616	     64.85182566	    126.20020063	     92.63914131	     47.61740642	     -6.16524086	     62.24552857	    131.53857856	    100.05743980
